<svg width="105" height="105" viewBox="0 0 105 105" fill="none" xmlns="http://www.w3.org/2000/svg">
<path d="M36.4453 71.9531L99.1689 72.0175" stroke="#EEF2F6" stroke-width="0.567568"/>
<path d="M50.5986 47L50.6395 95.2759" stroke="#EEF2F6" stroke-width="0.567568"/>
<path d="M70.7939 47.7344L70.8351 96.0103" stroke="#EEF2F6" stroke-width="0.567568"/>
<path d="M88.8447 47.0391L88.8859 95.3149" stroke="#EEF2F6" stroke-width="0.567568"/>
<path d="M22.3362 73.2235L9.82157 73.2104L9.83054 83.8083L24.3681 83.8234L24.3709 87.048L6.02537 87.029L6 57.125L24.1471 57.1437L24.1499 60.3891L9.81068 60.3743L9.81885 69.9861L22.3334 69.9991L22.3362 73.2235Z" fill="black"/>
<path d="M56.8027 47.0078C57.1963 72.9547 42.8553 63.0013 43.1379 71.9328C43.4203 80.8649 57.1344 71.4632 57.4894 94.8609" stroke="black" stroke-width="1.98649"/>
<path d="M95.0478 47.0469C95.4414 72.9932 81.1004 63.0401 81.383 71.9722C81.6654 80.904 95.3801 71.5019 95.7345 94.9002" stroke="black" stroke-width="1.98649"/>
<path d="M3.31423 39.1707H1L7.69345 22H9.97208L16.6655 39.1707H14.3513L8.90397 24.7165H8.76156L3.31423 39.1707ZM4.16871 32.4634H13.4968V34.3079H4.16871V32.4634Z" fill="#20CED9"/>
<path d="M21.3207 31.4238V39.1707H19.2201V26.2927H21.2495V28.3049H21.4275C21.7479 27.6509 22.2345 27.1255 22.8872 26.7287C23.54 26.3262 24.3826 26.125 25.4151 26.125C26.3408 26.125 27.1508 26.3039 27.845 26.6616C28.5393 27.0137 29.0793 27.5503 29.465 28.2713C29.8507 28.9868 30.0435 29.8923 30.0435 30.9878V39.1707H27.9429V31.122C27.9429 30.1103 27.664 29.3222 27.1063 28.7576C26.5485 28.1875 25.783 27.9024 24.8098 27.9024C24.1393 27.9024 23.54 28.0394 23.0119 28.3133C22.4897 28.5871 22.0773 28.9868 21.7746 29.5122C21.472 30.0376 21.3207 30.6748 21.3207 31.4238Z" fill="#20CED9"/>
<path d="M39.8278 26.2927V27.9695H32.7427V26.2927H39.8278ZM34.8077 23.2073H36.9083V35.4817C36.9083 36.0406 36.9944 36.4599 37.1665 36.7393C37.3445 37.0132 37.57 37.1977 37.8429 37.2927C38.1218 37.3821 38.4156 37.4268 38.7241 37.4268C38.9555 37.4268 39.1454 37.4157 39.2938 37.3933C39.4421 37.3653 39.5608 37.343 39.6498 37.3262L40.077 39.1037C39.9346 39.154 39.7358 39.2043 39.4807 39.2546C39.2255 39.3105 38.9021 39.3384 38.5105 39.3384C37.9171 39.3384 37.3356 39.2182 36.7659 38.9779C36.2022 38.7376 35.7334 38.3714 35.3596 37.8796C34.9917 37.3877 34.8077 36.7673 34.8077 36.0183V23.2073Z" fill="#20CED9"/>
<path d="M48.5729 39.439C47.2556 39.439 46.1193 39.1651 45.1639 38.6174C44.2145 38.064 43.4816 37.2927 42.9654 36.3034C42.4551 35.3084 42.1999 34.1514 42.1999 32.8323C42.1999 31.5132 42.4551 30.3506 42.9654 29.3445C43.4816 28.3328 44.1996 27.5447 45.1194 26.9802C46.0451 26.4101 47.1251 26.125 48.3593 26.125C49.0714 26.125 49.7745 26.2368 50.4688 26.4604C51.1631 26.6839 51.795 27.0473 52.3647 27.5503C52.9344 28.0478 53.3883 28.7073 53.7265 29.529C54.0648 30.3506 54.2339 31.3623 54.2339 32.564V33.4024H43.6953V31.6921H52.0977C52.0977 30.9654 51.9434 30.3171 51.6348 29.747C51.3322 29.1768 50.899 28.7269 50.3353 28.3971C49.7775 28.0673 49.1188 27.9024 48.3593 27.9024C47.5226 27.9024 46.7987 28.0981 46.1875 28.4893C45.5822 28.875 45.1164 29.378 44.7901 29.9985C44.4637 30.6189 44.3005 31.284 44.3005 31.9939V33.1341C44.3005 34.1067 44.4785 34.9311 44.8346 35.6075C45.1965 36.2782 45.6979 36.7896 46.3388 37.1418C46.9797 37.4883 47.7244 37.6616 48.5729 37.6616C49.1248 37.6616 49.6232 37.5889 50.0683 37.4436C50.5193 37.2927 50.9079 37.0691 51.2343 36.7729C51.5607 36.471 51.8128 36.0965 51.9909 35.6494L54.0203 36.186C53.8066 36.8343 53.4476 37.4045 52.9433 37.8963C52.4389 38.3826 51.8158 38.7627 51.0741 39.0366C50.3323 39.3049 49.4986 39.439 48.5729 39.439Z" fill="#20CED9"/>
<path d="M59.5299 22V39.1707H57.4293V22H59.5299Z" fill="#20CED9"/>
<path d="M68.9314 39.439C67.6972 39.439 66.6143 39.1623 65.6826 38.609C64.7569 38.0556 64.033 37.2815 63.5108 36.2866C62.9946 35.2917 62.7364 34.1291 62.7364 32.7988C62.7364 31.4573 62.9946 30.2863 63.5108 29.2858C64.033 28.2853 64.7569 27.5084 65.6826 26.955C66.6143 26.4017 67.6972 26.125 68.9314 26.125C70.1657 26.125 71.2457 26.4017 72.1714 26.955C73.103 27.5084 73.8269 28.2853 74.3432 29.2858C74.8654 30.2863 75.1264 31.4573 75.1264 32.7988C75.1264 34.1291 74.8654 35.2917 74.3432 36.2866C73.8269 37.2815 73.103 38.0556 72.1714 38.609C71.2457 39.1623 70.1657 39.439 68.9314 39.439ZM68.9314 37.6616C69.869 37.6616 70.6404 37.4352 71.2457 36.9825C71.8509 36.5297 72.2989 35.9345 72.5897 35.1966C72.8805 34.4588 73.0258 33.6596 73.0258 32.7988C73.0258 31.938 72.8805 31.1359 72.5897 30.3925C72.2989 29.6491 71.8509 29.0483 71.2457 28.5899C70.6404 28.1316 69.869 27.9024 68.9314 27.9024C67.9939 27.9024 67.2225 28.1316 66.6172 28.5899C66.012 29.0483 65.5639 29.6491 65.2732 30.3925C64.9824 31.1359 64.837 31.938 64.837 32.7988C64.837 33.6596 64.9824 34.4588 65.2732 35.1966C65.5639 35.9345 66.012 36.5297 66.6172 36.9825C67.2225 37.4352 67.9939 37.6616 68.9314 37.6616Z" fill="#20CED9"/>
<path d="M78.333 44V26.2927H80.3624V28.3384H80.6116C80.7659 28.1148 80.9795 27.8298 81.2525 27.4832C81.5314 27.1311 81.9289 26.8181 82.4452 26.5442C82.9674 26.2647 83.6735 26.125 84.5636 26.125C85.7148 26.125 86.7295 26.3961 87.6077 26.9383C88.4859 27.4804 89.1713 28.249 89.6638 29.2439C90.1563 30.2388 90.4026 31.4126 90.4026 32.7652C90.4026 34.1291 90.1563 35.3112 89.6638 36.3117C89.1713 37.3067 88.4889 38.078 87.6166 38.6258C86.7443 39.1679 85.7385 39.439 84.5992 39.439C83.721 39.439 83.0178 39.3021 82.4897 39.0282C81.9616 38.7487 81.5551 38.4329 81.2703 38.0808C80.9854 37.7231 80.7659 37.4268 80.6116 37.1921H80.4336V44H78.333ZM80.398 32.7317C80.398 33.7043 80.5493 34.5622 80.8519 35.3056C81.1546 36.0434 81.5966 36.622 82.1782 37.0412C82.7597 37.4548 83.4718 37.6616 84.3144 37.6616C85.1926 37.6616 85.9254 37.4436 86.5129 37.0076C87.1063 36.5661 87.5513 35.9736 87.848 35.2302C88.1506 34.4812 88.302 33.6484 88.302 32.7317C88.302 31.8262 88.1536 31.0102 87.8569 30.2835C87.5662 29.5513 87.1241 28.9728 86.5307 28.548C85.9432 28.1176 85.2045 27.9024 84.3144 27.9024C83.4599 27.9024 82.7419 28.1065 82.1604 28.5145C81.5788 28.9169 81.1397 29.4815 80.843 30.2081C80.5463 30.9291 80.398 31.7703 80.398 32.7317Z" fill="#20CED9"/>
<path d="M99.339 39.439C98.0217 39.439 96.8854 39.1651 95.93 38.6174C94.9806 38.064 94.2477 37.2927 93.7315 36.3034C93.2212 35.3084 92.966 34.1514 92.966 32.8323C92.966 31.5132 93.2212 30.3506 93.7315 29.3445C94.2477 28.3328 94.9657 27.5447 95.8855 26.9802C96.8112 26.4101 97.8912 26.125 99.1254 26.125C99.8375 26.125 100.541 26.2368 101.235 26.4604C101.929 26.6839 102.561 27.0473 103.131 27.5503C103.7 28.0478 104.154 28.7073 104.493 29.529C104.831 30.3506 105 31.3623 105 32.564V33.4024H94.4614V31.6921H102.864C102.864 30.9654 102.71 30.3171 102.401 29.747C102.098 29.1768 101.665 28.7269 101.101 28.3971C100.544 28.0673 99.885 27.9024 99.1254 27.9024C98.2887 27.9024 97.5648 28.0981 96.9536 28.4893C96.3484 28.875 95.8825 29.378 95.5562 29.9985C95.2298 30.6189 95.0666 31.284 95.0666 31.9939V33.1341C95.0666 34.1067 95.2446 34.9311 95.6007 35.6075C95.9626 36.2782 96.4641 36.7896 97.1049 37.1418C97.7458 37.4883 98.4905 37.6616 99.339 37.6616C99.8909 37.6616 100.389 37.5889 100.834 37.4436C101.285 37.2927 101.674 37.0691 102 36.7729C102.327 36.471 102.579 36.0965 102.757 35.6494L104.786 36.186C104.573 36.8343 104.214 37.4045 103.709 37.8963C103.205 38.3826 102.582 38.7627 101.84 39.0366C101.098 39.3049 100.265 39.439 99.339 39.439Z" fill="#20CED9"/>
</svg>
