<svg width="150" height="150" viewBox="0 0 375 375" fill="none" xmlns="http://www.w3.org/2000/svg">
<path d="M182.795 22.2656L148.686 68.8149L134.766 137.335L183.864 165.974L232.531 136.554L217.296 67.9794L182.795 22.2656ZM139.976 134.541L152.165 75.7131L180.921 158.397L139.976 134.541ZM154.105 69.7094L182.855 30.3262L212.728 69.2412L183.777 154.228L154.105 69.7094ZM187.415 158.345L213.856 75.2204L228.903 133.831L187.415 158.345Z" fill="#4B6973"/>
<path d="M121.985 287.797L343.011 288.024" stroke="#EEF2F6" stroke-width="2"/>
<path d="M171.859 199.863L172.003 369.978" stroke="#EEF2F6" stroke-width="2"/>
<path d="M243.021 202.457L243.166 372.572" stroke="#EEF2F6" stroke-width="2"/>
<path d="M306.631 200.001L306.776 370.116" stroke="#EEF2F6" stroke-width="2"/>
<path d="M72.2667 98.1028L28.1677 98.0575L28.1993 135.402L79.4269 135.455L79.4366 146.818L14.7906 146.751L14.7012 41.3751L78.6482 41.4408L78.658 52.8759L28.1293 52.824L28.1581 86.6948L72.2571 86.7402L72.2667 98.1028Z" fill="#48DCE5"/>
<path d="M72.2667 292.273L28.1677 292.227L28.1993 329.572L79.4269 329.625L79.4366 340.988L14.7906 340.921L14.7012 235.545L78.6482 235.611L78.658 247.047L28.1293 246.995L28.1581 280.865L72.2571 280.911L72.2667 292.273Z" fill="#4B6973"/>
<path d="M330.992 99.8116C319.481 96.374 311.091 92.1678 305.822 87.1927C300.6 82.1694 297.985 75.9909 297.979 68.6569C297.972 60.3582 301.158 53.51 307.536 48.1127C313.961 42.6672 322.298 39.9496 332.549 39.9602C339.537 39.9674 345.759 41.3729 351.212 44.177C356.712 46.981 360.956 50.8453 363.942 55.7698C366.975 60.6943 368.493 66.0756 368.498 71.9138L355.009 71.9C355.005 65.5311 353.042 60.5353 349.126 56.9126C345.209 53.2416 339.687 51.4025 332.558 51.3952C325.942 51.3884 320.772 52.9029 317.047 55.9388C313.368 58.9265 311.532 63.0982 311.536 68.4537C311.54 72.748 313.291 76.3926 316.788 79.3876C320.332 82.3345 326.32 85.0425 334.756 87.5119C343.237 89.9812 349.855 92.7141 354.611 95.7104C359.412 98.6586 362.956 102.112 365.243 106.071C367.574 110.03 368.744 114.687 368.748 120.043C368.755 128.583 365.546 135.431 359.121 140.587C352.696 145.695 344.103 148.244 333.339 148.232C326.35 148.224 319.826 146.843 313.768 144.086C307.707 141.282 303.023 137.465 299.711 132.637C296.445 127.809 294.81 122.331 294.804 116.203L308.293 116.217C308.297 122.586 310.561 127.63 315.084 131.35C319.653 135.022 325.735 136.861 333.329 136.869C340.411 136.877 345.839 135.386 349.61 132.399C353.382 129.411 355.265 125.336 355.259 120.173C355.255 115.011 353.505 111.029 350.008 108.226C346.511 105.376 340.172 102.571 330.992 99.8116Z" fill="#48DCE5"/>
<path d="M193.719 199.896C195.106 291.328 144.571 256.254 145.567 287.727C146.562 319.202 194.888 286.072 196.139 368.521" stroke="#4B6973" stroke-width="7"/>
<path d="M328.49 200.035C329.877 291.465 279.342 256.392 280.338 287.867C281.333 319.341 329.661 286.21 330.91 368.661" stroke="#4B6973" stroke-width="7"/>
</svg>
