<svg width="346" height="298" viewBox="0 0 346 298" fill="none" xmlns="http://www.w3.org/2000/svg">
<path d="M167.339 2.34967L135.666 39.3183L122.702 93.7064L168.218 116.394L213.38 93.007L199.303 38.5994L167.339 2.34967ZM127.537 91.4846L138.889 44.7898L165.495 110.383L127.537 91.4846ZM140.692 40.0237L167.388 8.74636L195.065 39.6044L168.147 107.073L140.692 40.0237ZM171.518 110.337L196.106 44.3485L210.017 90.8484L171.518 110.337Z" fill="#4B6973"/>
<line x1="111" y1="229" x2="316" y2="229" stroke="#EEF2F6" stroke-width="2"/>
<line x1="157" y1="159" x2="157" y2="294" stroke="#EEF2F6" stroke-width="2"/>
<line x1="223" y1="161" x2="223" y2="296" stroke="#EEF2F6" stroke-width="2"/>
<line x1="282" y1="159" x2="282" y2="294" stroke="#EEF2F6" stroke-width="2"/>
<path d="M31.7598 265.977C24.5983 265.977 18.7715 263.633 14.2793 258.945C9.78711 254.225 7.54102 247.926 7.54102 240.049V238.389C7.54102 233.148 8.53385 228.477 10.5195 224.375C12.5378 220.241 15.3372 217.018 18.918 214.707C22.5312 212.363 26.4375 211.191 30.6367 211.191C37.5052 211.191 42.8438 213.454 46.6523 217.979C50.4609 222.503 52.3652 228.981 52.3652 237.412V241.172H16.5742C16.7044 246.38 18.2181 250.596 21.1152 253.818C24.0449 257.008 27.7559 258.604 32.248 258.604C35.4382 258.604 38.14 257.952 40.3535 256.65C42.5671 255.348 44.5039 253.623 46.1641 251.475L51.6816 255.771C47.2546 262.575 40.6139 265.977 31.7598 265.977ZM30.6367 218.613C26.9909 218.613 23.931 219.948 21.457 222.617C18.9831 225.254 17.4531 228.965 16.8672 233.75H43.332V233.066C43.0716 228.477 41.8346 224.928 39.6211 222.422C37.4076 219.883 34.4128 218.613 30.6367 218.613Z" fill="#4B6973"/>
<path d="M51.437 75.1387H20.6265V100.334H56.4175V108H11.2515V36.9062H55.9292V44.6211H20.6265V67.4727H51.437V75.1387Z" fill="#48DCE5"/>
<path d="M296.199 76.3105C288.159 73.9993 282.299 71.1673 278.621 67.8145C274.975 64.429 273.152 60.2624 273.152 55.3145C273.152 49.7155 275.382 45.0931 279.842 41.4473C284.334 37.7689 290.161 35.9297 297.322 35.9297C302.205 35.9297 306.551 36.8737 310.359 38.7617C314.201 40.6497 317.163 43.2539 319.246 46.5742C321.362 49.8945 322.42 53.5241 322.42 57.4629H312.996C312.996 53.166 311.629 49.7969 308.895 47.3555C306.16 44.8815 302.303 43.6445 297.322 43.6445C292.7 43.6445 289.087 44.6699 286.482 46.7207C283.911 48.7389 282.625 51.5547 282.625 55.168C282.625 58.0651 283.846 60.5228 286.287 62.541C288.761 64.5267 292.944 66.3496 298.836 68.0098C304.76 69.6699 309.383 71.5091 312.703 73.5273C316.056 75.513 318.53 77.8405 320.125 80.5098C321.753 83.179 322.566 86.3203 322.566 89.9336C322.566 95.6953 320.32 100.318 315.828 103.801C311.336 107.251 305.33 108.977 297.811 108.977C292.928 108.977 288.37 108.049 284.139 106.193C279.907 104.305 276.635 101.734 274.324 98.4785C272.046 95.2233 270.906 91.5286 270.906 87.3945H280.33C280.33 91.6914 281.909 95.0931 285.066 97.5996C288.257 100.074 292.505 101.311 297.811 101.311C302.758 101.311 306.551 100.301 309.188 98.2832C311.824 96.265 313.143 93.5143 313.143 90.0312C313.143 86.5482 311.922 83.8626 309.48 81.9746C307.039 80.054 302.612 78.166 296.199 76.3105Z" fill="#48DCE5"/>
<path d="M177.603 159.008C178.816 231.565 131.974 203.773 132.873 228.75C133.771 253.726 178.62 227.395 179.714 292.825" stroke="#4B6973" stroke-width="7"/>
<path d="M302.603 159.008C303.816 231.565 256.974 203.773 257.873 228.75C258.771 253.726 303.62 227.395 304.714 292.825" stroke="#4B6973" stroke-width="7"/>
</svg>
