<svg width="679" height="640" viewBox="0 0 679 640" fill="none" xmlns="http://www.w3.org/2000/svg">
<path d="M330.981 38L269.22 117.444L244.016 234.385L332.917 283.262L421.036 233.053L393.451 116.018L330.981 38ZM253.45 229.616L275.52 129.217L327.588 270.331L253.45 229.616ZM279.032 118.971L331.09 51.7567L385.179 118.172L332.759 263.217L279.032 118.971ZM339.346 270.242L387.221 128.376L414.467 228.404L339.346 270.242Z" fill="#4B6973"/>
<path d="M220.874 491.173L621.079 491.561" stroke="#EEF2F6" stroke-width="2"/>
<path d="M311.179 341.1L311.44 631.43" stroke="#EEF2F6" stroke-width="2"/>
<path d="M440.031 345.527L440.292 635.857" stroke="#EEF2F6" stroke-width="2"/>
<path d="M555.207 341.335L555.468 631.665" stroke="#EEF2F6" stroke-width="2"/>
<path d="M130.851 167.429L51.0023 167.351L51.0595 231.087L143.816 231.176L143.833 250.569L26.7809 250.455L26.6189 70.6135L142.406 70.7256L142.423 90.2415L50.9328 90.153L50.9849 147.959L130.833 148.037L130.851 167.429Z" fill="#48DCE5"/>
<path d="M130.851 498.813L51.0023 498.735L51.0595 562.469L143.816 562.56L143.833 581.952L26.7809 581.839L26.6189 401.996L142.406 402.11L142.423 421.626L50.9328 421.537L50.9849 479.342L130.833 479.421L130.851 498.813Z" fill="#4B6973"/>
<path d="M599.316 170.345C578.474 164.478 563.282 157.3 553.743 148.809C544.286 140.236 539.551 129.691 539.541 117.174C539.528 103.011 545.297 91.3238 556.845 82.1123C568.478 72.8187 583.575 68.1806 602.136 68.1988C614.788 68.2109 626.054 70.6098 635.928 75.3954C645.887 80.1809 653.571 86.776 658.977 95.1805C664.469 103.585 667.219 112.769 667.226 122.733L642.803 122.709C642.795 111.84 639.242 103.314 632.152 97.1308C625.058 90.8657 615.06 87.7269 602.151 87.7145C590.173 87.7028 580.812 90.2876 574.066 95.4689C567.406 100.568 564.081 107.688 564.088 116.828C564.096 124.157 567.266 130.377 573.597 135.488C580.014 140.518 590.857 145.139 606.132 149.354C621.487 153.568 633.471 158.232 642.083 163.346C650.775 168.377 657.192 174.271 661.333 181.027C665.555 187.784 667.672 195.732 667.68 204.873C667.693 219.448 661.882 231.135 650.249 239.935C638.615 248.652 623.055 253.002 603.566 252.982C590.911 252.97 579.099 250.612 568.129 245.908C557.156 241.121 548.673 234.607 542.676 226.367C536.762 218.127 533.803 208.778 533.792 198.32L558.216 198.344C558.224 209.213 562.323 217.822 570.513 224.171C578.785 230.437 589.797 233.577 603.548 233.59C616.371 233.603 626.199 231.059 633.028 225.961C639.856 220.862 643.267 213.907 643.257 205.096C643.249 196.285 640.079 189.489 633.748 184.706C627.417 179.842 615.939 175.055 599.316 170.345Z" fill="#48DCE5"/>
<path d="M350.76 341.156C353.272 497.199 261.77 437.34 263.574 491.055C265.375 544.772 352.878 488.229 355.143 628.943" stroke="#4B6973" stroke-width="7"/>
<path d="M594.786 341.393C597.297 497.434 505.795 437.575 507.599 491.292C509.4 545.009 596.906 488.464 599.168 629.181" stroke="#4B6973" stroke-width="7"/>
</svg>
